<?xml version="1.0" encoding="UTF-8"?><svg id="Layer_1" xmlns="http://www.w3.org/2000/svg" viewBox="0 0 94.78 28"><defs><style>.cls-1{fill:none;stroke:#e4ddf8;stroke-width:10px;}.cls-2{fill:#231f20;stroke-width:0px;}</style></defs><line class="cls-1" x1="3.77" y1="22.07" x2="94.78" y2="22.07"/><path class="cls-2" d="M16.38,20.91v.8c0,.27-.13.4-.4.4h-6.52c-.27,0-.4-.13-.4-.4v-.83c0-.24.13-.37.35-.37h.4c.35,0,.72-.13.72-.4,0-.11-.05-.24-.21-.4l-3.52-3.81-.56.51v1.57c0,2.08.13,2.53,1.44,2.53.24,0,.4.13.4.4v.8c0,.27-.16.4-.4.4H.56c-.27,0-.4-.13-.4-.4v-.8c0-.27.13-.4.4-.4,1.3,0,1.97-1.09,1.94-2.53V8c0-1.44-.11-2.9-1.6-3.06-.24-.03-.32-.16-.29-.35v-.91c0-.21.13-.27.37-.35,2.82-.93,4.29-1.94,5.01-2.48.05-.03.08-.05.11-.05h.08s.03,0,.05.05v13.21l3.25-2.95c.13-.11.21-.24.21-.37,0-.19-.16-.35-.53-.35h-.8c-.21,0-.37-.13-.35-.4v-.8c0-.27.13-.4.4-.4h5.91c.27,0,.4.13.4.4v.8c0,.27-.13.4-.35.4h-.32c-1.04,0-1.6.51-3.01,1.73l-2.05,1.84,5.7,5.72c.61.61.88.82,1.25.82h.08c.21,0,.35.13.35.4Z"/><path class="cls-2" d="M25.49,20.91v.8c0,.27-.19.4-.45.4h-7.53c-.27,0-.45-.13-.45-.4v-.8c0-.27.13-.4.4-.4h.05c1.3,0,1.94-1.09,1.92-2.53v-2.82c0-1.2-.11-2.66-1.57-2.82-.27-.03-.32-.16-.32-.35v-.91c0-.21.13-.27.4-.35,2.8-.93,4.18-1.97,4.9-2.72.03-.03.08-.05.11-.05h.05q.05,0,.08.03v9.98c0,1.44.64,2.53,1.94,2.53h.08c.27,0,.4.13.4.4ZM19.88,5.74c-.48-.45-.67-.85-.67-1.33s.19-.85.67-1.33c.45-.48.85-.67,1.33-.67s.85.19,1.33.67.67.85.67,1.33-.19.88-.67,1.33c-.48.48-.85.67-1.33.67s-.88-.19-1.33-.67Z"/><path class="cls-2" d="M53.4,20.91v.8c0,.27-.16.4-.4.4h-7.51c-.27,0-.4-.13-.4-.4v-.8c0-.27.13-.4.4-.4h.13c1.12,0,1.38-.82,1.38-2.53v-4.02c0-1.44.13-3.17-1.92-3.17-1.54,0-2.69,1.09-3.46,2.53v4.66c0,1.97.67,2.53,1.7,2.53h.21c.27,0,.4.13.4.4v.8c0,.27-.13.4-.4.4h-7.24c-.24,0-.4-.13-.4-.4v-.8c0-.27.16-.4.4-.4h.19c.75,0,1.44-.56,1.41-2.53v-4.02c0-1.7.11-3.17-1.92-3.17-1.33,0-2.8,1.14-3.25,2.29v4.9c0,1.44.67,2.53,1.7,2.53h.05c.27,0,.4.13.4.4v.8c0,.27-.13.4-.4.4h-7.48c-.27,0-.4-.13-.4-.4v-.8c0-.27.13-.4.4-.4h.05c1.31,0,1.94-1.09,1.94-2.53v-3.35c0-1.41-.11-2.9-1.6-3.06-.24-.03-.32-.16-.29-.35v-.91c0-.21.11-.29.37-.35,2.56-.4,4.55-1.44,5.27-1.94.05-.03.08-.05.11-.05h.08s.03,0,.03.03l-.48,3.51c.75-1.2,2.18-3.06,4.61-3.06,2.61,0,3.78,1.09,4.23,2.61,1.2-1.54,2.8-2.61,4.9-2.61,3.81,0,4.53,2.58,4.53,5.14v4.39c0,1.44.67,2.53,1.94,2.53h.29c.24,0,.4.13.4.4Z"/><path class="cls-2" d="M52.24,4.94c-.27-.03-.32-.16-.32-.35v-.91c0-.21.13-.27.37-.35,2.82-.93,4.29-1.94,5-2.48.05-.03.08-.05.13-.05h.05s.03,0,.03.05v8.89c.48-.72,1.73-1.31,3.22-1.31,2.88,0,6.47,1.86,6.47,7.03,0,4.07-2.66,6.95-6.98,6.95-3.54,0-6.42-1.65-6.42-6.04V8c0-1.44-.11-2.9-1.57-3.06ZM60.49,20.7c2.58,0,3.27-2.16,3.27-4.37,0-3.41-1.49-5.54-4.21-5.54-.72,0-1.41.21-2.05.69v5.46c0,2.61,1.46,3.75,2.98,3.75Z"/><path class="cls-2" d="M76,20.22c1.14,0,2.48-.61,3.41-1.97.05-.08.16-.11.21-.11.16,0,.21,0,1.07.51.08.05.11.13.11.21,0,.13-.08.32-.16.45-1.01,1.86-2.64,3.12-5.35,3.12-4.42,0-7.14-3.25-7.14-7.11,0-4.93,3.19-6.82,6.34-6.82,3.51,0,5.49,3.11,5.49,5.14,0,.13-.05.27-.24.32l-7.72,3.38c.61,1.49,1.94,2.88,3.99,2.88ZM73.81,10.61c-1.46,0-2.37,1.31-2.37,3.04,0,.53.03,1.41.24,2.05l4.29-2.16c0-1.7-.93-2.93-2.16-2.93Z"/><path class="cls-2" d="M91.77,8.45c1.65,0,3.01.93,3.01,2.74,0,.8-.05,1.44-.69,1.7l-2.5,1.01c-.08.05-.16.05-.24.05-.16,0-.24-.11-.24-.24,0-.08.03-.16.05-.24.21-.51.24-.96.24-1.33,0-.96-.53-1.39-1.25-1.39-1.22,0-2.29,1.33-2.66,2.32v4.9c0,1.44.64,2.53,1.94,2.53h.05c.27,0,.4.13.4.4v.8c0,.27-.13.4-.4.4h-7.75c-.27,0-.4-.13-.4-.4v-.8c0-.27.13-.4.4-.4h.05c1.31,0,1.94-1.09,1.94-2.53v-3.35c0-1.41-.11-2.9-1.57-3.06-.27-.03-.32-.16-.32-.35v-.91c0-.21.13-.29.4-.35,2.53-.4,4.55-1.44,5.24-1.94.05-.03.08-.05.13-.05h.05s.05,0,.05.03l-.64,3.59c.96-2.05,2.8-3.14,4.69-3.14Z"/></svg>