<?xml version="1.0" encoding="UTF-8"?>
<svg id="Layer_1" data-name="Layer 1" xmlns="http://www.w3.org/2000/svg" viewBox="0 0 262.37 57.19">
  <defs>
    <style>
      .cls-1 {
        fill: #231f20;
      }
    </style>
  </defs>
  <path class="cls-1" d="M212.73,51.29c3.02,0,6.54-1.62,9-5.2.14-.21.42-.28.56-.28.42,0,.56,0,2.81,1.34.21.14.28.35.28.56,0,.35-.21.84-.42,1.2-2.67,4.92-6.96,8.22-14.13,8.22-11.67,0-18.84-8.58-18.84-18.77,0-13,8.43-18,16.73-18,9.28,0,14.48,8.22,14.48,13.57,0,.35-.14.7-.63.84l-20.38,8.93c1.62,3.94,5.13,7.59,10.54,7.59ZM206.96,25.91c-3.87,0-6.26,3.44-6.26,8.01,0,1.41.07,3.73.63,5.41l11.32-5.69c0-4.5-2.46-7.73-5.69-7.73Z"/>
  <g>
    <path class="cls-1" d="M72.77,12.64c-1.47-1.35-3.08-1.85-4.7-1.85s-3.43.5-4.79,1.84-1.96,2.91-1.96,4.4c-.13,2.9,2.26,5.27,5.18,6.02.5.15,1.02.22,1.56.22,1.62,0,3.47-.59,4.86-1.82,1.27-1.14,1.95-2.75,1.89-4.42,0-1.5-.63-3.09-2.04-4.39Z"/>
    <path class="cls-1" d="M79.37,52.06h-.21c-3.44,0-5.13-2.88-5.13-6.68v-18.8c0-.49-.52-.79-.94-.54-1.81,1.06-3.14,1.68-6.25,1.68s-4.86-1.46-6.38-1.46c-.52,0-1.05.35-1.05.91v2.39c0,.49.14.84.84.91,3.87.42,4.15,4.29,4.15,7.45v7.45c.07,3.8-1.62,6.68-5.06,6.68h-.14c-.7,0-1.05.35-1.05,1.05v1.48c0,.93.75,1.69,1.69,1.69h18.77c1.01,0,1.83-.82,1.83-1.83v-1.34c0-.7-.35-1.05-1.05-1.05Z"/>
  </g>
  <path class="cls-1" d="M154.28,53.12v2.11c0,.7-.42,1.05-1.05,1.05h-19.82c-.7,0-1.05-.35-1.05-1.05v-2.11c0-.7.35-1.05,1.05-1.05h.35c2.95,0,3.66-2.18,3.66-6.68v-10.61c0-3.8.35-8.36-5.06-8.36-4.08,0-7.1,2.88-9.14,6.68v12.3c0,5.2,1.76,6.68,4.5,6.68h.56c.7,0,1.05.35,1.05,1.05v2.11c0,.7-.35,1.05-1.05,1.05h-19.12c-.63,0-1.05-.35-1.05-1.05v-2.11c0-.7.42-1.05,1.05-1.05h.49c1.97,0,3.8-1.48,3.73-6.68v-10.61c0-4.5.28-8.36-5.06-8.36-3.51,0-7.38,3.02-8.58,6.05v12.93c0,3.8,1.76,6.68,4.5,6.68h.14c.7,0,1.05.35,1.05,1.05v2.11c0,.7-.35,1.05-1.05,1.05h-19.75c-.7,0-1.05-.35-1.05-1.05v-2.11c0-.7.35-1.05,1.05-1.05h.14c3.44,0,5.13-2.88,5.13-6.68v-8.86c0-3.73-.28-7.66-4.22-8.08-.63-.07-.84-.42-.77-.91v-2.39c0-.56.28-.77.98-.91,6.75-1.05,12.02-3.8,13.92-5.13.14-.07.21-.14.28-.14h.21q.07,0,.07.07l-1.27,9.28c1.97-3.16,5.76-8.08,12.16-8.08,6.89,0,9.98,2.88,11.18,6.89,3.16-4.08,7.38-6.89,12.93-6.89,10.05,0,11.95,6.82,11.95,13.57v11.6c0,3.8,1.76,6.68,5.13,6.68h.77c.63,0,1.05.35,1.05,1.05Z"/>
  <path class="cls-1" d="M149.82,10.94c-.7-.07-.84-.42-.84-.91v-2.39c0-.56.35-.7.98-.91,7.45-2.46,11.32-5.13,13.22-6.54.14-.07.21-.14.35-.14h.14q.07,0,.07.14v23.48c1.27-1.9,4.57-3.44,8.51-3.44,7.59,0,17.08,4.92,17.08,18.56,0,10.75-7.03,18.35-18.42,18.35-9.35,0-16.94-4.36-16.94-15.96v-22.14c0-3.8-.28-7.66-4.15-8.08ZM171.62,52.56c6.82,0,8.65-5.69,8.65-11.53,0-9-3.94-14.62-11.11-14.62-1.9,0-3.73.56-5.41,1.83v14.41c0,6.89,3.87,9.91,7.87,9.91Z"/>
  <path class="cls-1" d="M254.34,20.22c4.36,0,7.94,2.46,7.94,7.24,0,2.11-.14,3.8-1.83,4.5l-6.61,2.67c-.21.14-.42.14-.63.14-.42,0-.63-.28-.63-.63,0-.21.07-.42.14-.63.56-1.34.63-2.53.63-3.51,0-2.53-1.41-3.66-3.3-3.66-3.23,0-6.05,3.51-7.03,6.12v12.93c0,3.8,1.69,6.68,5.13,6.68h.14c.7,0,1.05.35,1.05,1.05v2.11c0,.7-.35,1.05-1.05,1.05h-20.46c-.7,0-1.05-.35-1.05-1.05v-2.11c0-.7.35-1.05,1.05-1.05h.14c3.44,0,5.13-2.88,5.13-6.68v-8.86c0-3.73-.28-7.66-4.15-8.08-.7-.07-.84-.42-.84-.91v-2.39c0-.56.35-.77,1.05-.91,6.68-1.05,12.02-3.8,13.85-5.13.14-.07.21-.14.35-.14h.14c.07,0,.14,0,.14.07l-1.69,9.49c2.53-5.41,7.38-8.29,12.37-8.29Z"/>
  <path class="cls-1" d="M55.28,52.16h-.21c-.98,0-1.69-.56-3.3-2.18l-15.04-15.11,5.41-4.85c3.73-3.23,5.2-4.57,7.94-4.57h.84c.56,0,.91-.35.91-1.05v-2.11c0-.7-.35-1.05-1.05-1.05h-15.61c-.7,0-1.05.35-1.05,1.05v2.11c-.07.7.35,1.05.91,1.05h2.11c.98,0,1.41.42,1.41.91,0,.35-.21.7-.56.98l-8.58,7.8V.28q-.07-.14-.14-.14h-.21c-.07,0-.14.07-.28.14-1.9,1.41-5.88,3.75-13.22,6.54-2.65,1.01-5.37,2.19-7.47,3.41C4.12,12.56.36,16.56.05,21.54c-.27,4.35,1.96,8.08,6.73,8.38,2.1.13,3.8.1,4.6-1.54l3.08-6.43c.15-.2.17-.41.18-.62.03-.42-.24-.65-.59-.67-.21-.01-.43.04-.64.1-1.37.48-2.56.47-3.55.41-2.53-.16-3.56-1.63-3.44-3.53.2-3.23,3.42-5.34,6.07-6.19.82-.26,2.44-.55,3.89-.19,3.01.74,3.19,4.43,3.19,7.86v26.36c.07,3.8-1.69,6.68-5.13,6.68-.7,0-1.05.35-1.05,1.05v2.11c0,.7.35,1.05,1.05,1.05h18.77c.63,0,1.05-.35,1.05-1.05v-2.11c0-.7-.42-1.05-1.05-1.05-3.44,0-3.8-1.2-3.8-6.68v-4.15l1.48-1.34,9.28,10.05c.42.42.56.77.56,1.05,0,.7-.98,1.05-1.9,1.05h-1.05c-.56,0-.91.35-.91.98v2.18c0,.7.35,1.05,1.05,1.05h17.22c.7,0,1.05-.35,1.05-1.05v-2.11c0-.7-.35-1.05-.91-1.05Z"/>
</svg>